<?xml version="1.0" encoding="UTF-8"?>
<svg width="128px" height="129px" viewBox="0 0 128 129" version="1.1" xmlns="http://www.w3.org/2000/svg" xmlns:xlink="http://www.w3.org/1999/xlink">
    <title>icon_problem</title>
    <g id="页面-1" stroke="none" stroke-width="1" fill="none" fill-rule="evenodd">
        <g id="Apple-TV备份-9" transform="translate(-285.000000, -527.000000)">
            <g id="icon_problem" transform="translate(285.000000, 527.500000)">
                <rect id="矩形备份-8" fill="#D8D8D8" opacity="0" x="0" y="0" width="128" height="128"></rect>
                <g id="编组-4" transform="translate(20.500000, 20.500000)">
                    <path d="M43.5,3 C54.6837662,3 64.8087662,7.53311691 72.1378246,14.8621754 C79.4668831,22.1912338 84,32.3162338 84,43.5 C84,54.5065834 79.6097238,64.4879266 72.4839415,71.7874416 L72.4839415,71.7874416 L81.1807148,84 L43.935,84 C32.6813378,84 22.5579598,79.5836218 15.1930204,72.4112381 C7.79939434,65.2109177 3.18803885,55.2354838 3.00562902,44.1826691 L3.00562902,44.1826691 L3.00000172,43.4880607 C3.00322671,32.3090279 7.53572506,22.1886257 14.8621754,14.8621754 C22.1912338,7.53311691 32.3162338,3 43.5,3 Z" id="形状结合备份-2" stroke="#191C1E" stroke-width="6"></path>
                    <g id="编组-2备份" transform="translate(33.380915, 21.385169)">
                        <path d="M11.6806235,34.8987498 L11.6806235,31.5862532 C11.6806232,27.5597337 13.8579157,23.8479642 17.3724465,21.8830387 C17.3724465,21.8830387 17.3724465,21.8830387 17.3724465,21.8830387 C20.9455166,19.8853847 23.361247,16.0651161 23.361247,11.6806235 C23.361247,5.22959327 18.1316537,0 11.6806235,0 C5.22959327,0 0,5.22959327 0,11.6806235" id="路径" stroke="#3EB897" stroke-width="6"></path>
                        <circle id="椭圆形" fill="#3EB897" transform="translate(11.680623, 41.768021) rotate(-315.000000) translate(-11.680623, -41.768021) " cx="11.6806235" cy="41.7680207" r="3.12307692"></circle>
                    </g>
                </g>
            </g>
        </g>
    </g>
</svg>