<svg id="图层_1" data-name="图层 1" xmlns="http://www.w3.org/2000/svg" xmlns:xlink="http://www.w3.org/1999/xlink" viewBox="0 0 200 200"><defs><style>.cls-1,.cls-10,.cls-11,.cls-12,.cls-7,.cls-8,.cls-9{fill:none;}.cls-2{fill:url(#未命名的渐变_35);}.cls-3{fill:url(#未命名的渐变_32);}.cls-4{fill:url(#未命名的渐变_15);}.cls-5{clip-path:url(#clip-path);}.cls-6{opacity:0.5;fill:url(#未命名的渐变_16);}.cls-10,.cls-11,.cls-12,.cls-7,.cls-8,.cls-9{stroke-miterlimit:10;opacity:0.3;}.cls-7{stroke:url(#未命名的渐变_25);}.cls-10,.cls-11,.cls-8,.cls-9{stroke-width:0.5px;}.cls-8{stroke:url(#未命名的渐变_25-2);}.cls-9{stroke:url(#未命名的渐变_25-3);}.cls-10{stroke:url(#未命名的渐变_25-4);}.cls-11{stroke:url(#未命名的渐变_25-5);}.cls-12{stroke:url(#未命名的渐变_25-6);}.cls-13,.cls-14{fill:#f0feff;}.cls-13{opacity:0.7;}.cls-14{opacity:0.8;}</style><linearGradient id="未命名的渐变_35" x1="100" y1="6.42" x2="100" y2="193.69" gradientUnits="userSpaceOnUse"><stop offset="0" stop-color="#0acffe"/><stop offset="1" stop-color="#495aff"/></linearGradient><linearGradient id="未命名的渐变_32" x1="126.25" y1="167.42" x2="126.25" y2="147.59" gradientUnits="userSpaceOnUse"><stop offset="0" stop-color="#0fa2ff"/><stop offset="0.9" stop-color="#0fa2ff" stop-opacity="0"/></linearGradient><linearGradient id="未命名的渐变_15" x1="100" y1="51.17" x2="100" y2="166.89" gradientUnits="userSpaceOnUse"><stop offset="0" stop-color="#fff"/><stop offset="0.3" stop-color="#fff"/><stop offset="1" stop-color="#ace6fe"/></linearGradient><clipPath id="clip-path"><path class="cls-1" d="M144.78,49.46H55.22a5.38,5.38,0,0,0-5.37,5.38V66.3a5.37,5.37,0,0,0,5.37,5.37H82.81a5.38,5.38,0,0,1,5.37,5.38v85.43a5.36,5.36,0,0,0,5.37,5.37h12.9a5.36,5.36,0,0,0,5.37-5.37V77.05a5.38,5.38,0,0,1,5.37-5.38h27.59a5.37,5.37,0,0,0,5.37-5.37V54.84A5.38,5.38,0,0,0,144.78,49.46Z"/></clipPath><linearGradient id="未命名的渐变_16" x1="98.98" y1="71.95" x2="98.98" y2="90.63" gradientUnits="userSpaceOnUse"><stop offset="0" stop-color="#acecfe"/><stop offset="1" stop-color="#fff" stop-opacity="0"/></linearGradient><linearGradient id="未命名的渐变_25" x1="26.42" y1="200" x2="26.42" y2="50.91" gradientUnits="userSpaceOnUse"><stop offset="0" stop-color="#fff"/><stop offset="1" stop-color="#fff" stop-opacity="0"/></linearGradient><linearGradient id="未命名的渐变_25-2" x1="64.16" y1="200" x2="64.16" y2="68.41" xlink:href="#未命名的渐变_25"/><linearGradient id="未命名的渐变_25-3" x1="157.94" y1="200" x2="157.94" y2="60.43" xlink:href="#未命名的渐变_25"/><linearGradient id="未命名的渐变_25-4" x1="44.21" y1="0" x2="44.21" y2="142.23" xlink:href="#未命名的渐变_25"/><linearGradient id="未命名的渐变_25-5" x1="138.65" y1="0" x2="138.65" y2="131.92" xlink:href="#未命名的渐变_25"/><linearGradient id="未命名的渐变_25-6" x1="175.89" y1="50.91" x2="175.89" y2="191.12" xlink:href="#未命名的渐变_25"/></defs><rect class="cls-2" width="200" height="200" rx="23"/><polygon class="cls-3" points="107.97 167.72 157.35 147.43 95.15 147.43 107.97 167.72"/><path class="cls-4" d="M144.78,49.46H55.22a5.38,5.38,0,0,0-5.37,5.38V66.3a5.37,5.37,0,0,0,5.37,5.37H82.81a5.38,5.38,0,0,1,5.37,5.38v85.43a5.36,5.36,0,0,0,5.37,5.37h12.9a5.36,5.36,0,0,0,5.37-5.37V77.05a5.38,5.38,0,0,1,5.37-5.38h27.59a5.37,5.37,0,0,0,5.37-5.37V54.84A5.38,5.38,0,0,0,144.78,49.46Z"/><g class="cls-5"><rect class="cls-6" x="77.97" y="71.67" width="42.02" height="19.11"/></g><line class="cls-7" x1="26.42" y1="200" x2="26.42" y2="50.91"/><line class="cls-8" x1="64.16" y1="200" x2="64.16" y2="68.41"/><line class="cls-9" x1="157.94" y1="200" x2="157.94" y2="60.43"/><line class="cls-10" x1="44.21" y1="142.23" x2="44.21"/><line class="cls-11" x1="138.65" y1="131.92" x2="138.65"/><line class="cls-12" x1="175.89" y1="191.12" x2="175.89" y2="50.91"/><circle class="cls-13" cx="17.61" cy="86.29" r="3"/><circle class="cls-14" cx="175.89" cy="62.96" r="3.5"/><circle class="cls-13" cx="157.94" cy="168.16" r="2.5"/></svg>